<svg xmlns="http://www.w3.org/2000/svg" width="352" height="354" viewBox="0 0 352 354"><path d="M176,126a176.335,176.335,0,0,1-35.47-3.6,174.394,174.394,0,0,1-33.037-10.314A175.708,175.708,0,0,1,77.6,95.771,177.488,177.488,0,0,1,51.549,74.158a178.057,178.057,0,0,1-21.491-26.2A177.334,177.334,0,0,1,13.831,17.9,176.84,176.84,0,0,1,3.576-15.329,179.288,179.288,0,0,1,0-51,179.287,179.287,0,0,1,3.576-86.672,176.841,176.841,0,0,1,13.831-119.9a177.336,177.336,0,0,1,16.227-30.066,178.056,178.056,0,0,1,21.491-26.2A177.488,177.488,0,0,1,77.6-197.771a175.707,175.707,0,0,1,29.9-16.319A174.394,174.394,0,0,1,140.53-224.4,176.341,176.341,0,0,1,176-228a176.337,176.337,0,0,1,35.47,3.6,174.394,174.394,0,0,1,33.037,10.314,175.707,175.707,0,0,1,29.9,16.319,177.487,177.487,0,0,1,26.048,21.613,178.057,178.057,0,0,1,21.491,26.2A177.334,177.334,0,0,1,338.169-119.9a176.846,176.846,0,0,1,10.255,33.225A179.285,179.285,0,0,1,352-51a179.287,179.287,0,0,1-3.576,35.672A176.844,176.844,0,0,1,338.169,17.9a177.339,177.339,0,0,1-16.227,30.066,178.059,178.059,0,0,1-21.491,26.2A177.487,177.487,0,0,1,274.4,95.771a175.708,175.708,0,0,1-29.9,16.319A174.39,174.39,0,0,1,211.47,122.4,176.332,176.332,0,0,1,176,126Zm32.293-81.544h0A13.154,13.154,0,0,1,214.2,48.29c2.533,2.94,2.74,3.18,3.2,10.162.106,1.6.054,4.521-.006,7.9v.074c-.072,4.094-.161,9.187.007,13.637a84.663,84.663,0,0,0,1.389,12.45l0,.01h7.618l14.328-2.261a132.239,132.239,0,0,0,3.034-24.251,168.842,168.842,0,0,0-1.915-26.23l-1.119-28.69L241.861-5.32l15.118-7.457,30.693-5.355,21.568-6.485,9.224-10.905,6.457-18.32V-83.208l-7.611-30.4-12.174-25.242-13.2-18.5-15.451-14.335-.006,0c-.532.332-13.15,8.172-23.751,11.646a56.8,56.8,0,0,1-17.23,2.786c-1.461,0-2.4-.069-2.742-.1h-.019l.009,0c.583-.264,14.368-6.54,22.7-12.794a46.438,46.438,0,0,0,9.111-8.961,27.414,27.414,0,0,0,2.645-4.1l0-.007-14.477-10.641a29.925,29.925,0,0,0-5.686-3.717,81.194,81.194,0,0,0-19.253-6.989c-9.132-2.2-15.374-3.586-22.2-4.586-6.584-.963-13.657-1.57-25.224-2.164-2.845-.147-5.89-.221-9.052-.221-5.442,0-9.221.219-9.251.221h-.006c-.11,0-.419-.007-.912-.007a114.325,114.325,0,0,0-21.849,2.207,120.408,120.408,0,0,0-15.358,4.4c-4.353,1.542-8.887,3.37-13.476,5.433-7.494,3.368-12.643,6.243-13.206,6.56l-.005,0a48.153,48.153,0,0,0-.668,10.007,49.57,49.57,0,0,0,1.26,9.853,39.415,39.415,0,0,0,4.184,10.728,44.79,44.79,0,0,0,7.918,9.737,80.484,80.484,0,0,0,9.474,7.675,99.573,99.573,0,0,0,11.254,6.827l.018.008-20.9-5.757-16.6-6.955a103.638,103.638,0,0,1-4.621-13.069c-2.018-7.273-3.435-15.949-3.449-16.035a66.152,66.152,0,0,0-6.333,4.347A106.014,106.014,0,0,0,64.45-162.13c-9.867,10.936-19.915,27.3-26.222,42.7a109.273,109.273,0,0,0-6.683,24.785,148.81,148.81,0,0,0-1.652,22.673,144.8,144.8,0,0,0,1.7,22.955,28.927,28.927,0,0,0,3.218,9.16,37.1,37.1,0,0,0,6.065,8.336,42.73,42.73,0,0,0,10.852,8.07,76.38,76.38,0,0,0,15.848,5.864A164.454,164.454,0,0,0,84.636-14.1c10.364,1.6,18.846,2.082,19.2,2.1L112.9-.826l-2.692,33.09-3.2,33.751a45.125,45.125,0,0,0,1.208,7.071,35.218,35.218,0,0,0,2.114,6.141,18.8,18.8,0,0,0,3.659,5.478,16.8,16.8,0,0,0,5.185,3.394,29.046,29.046,0,0,0,5.75,1.77,38.674,38.674,0,0,0,7.155.784h.048a13.017,13.017,0,0,0,1.307-2.925,35.249,35.249,0,0,0,1.608-9.572c.4-8.818-1.29-22.823-1.307-22.963,0-.049-.34-4.885,1.307-8.239a14.211,14.211,0,0,1,5.37-5.365l11.6,43.116h17.613l1.91-29.513c.034-.114,3.509-11.391,5.352-12.271a1.487,1.487,0,0,1,.649-.147c1.289,0,2.761,1.571,4.036,4.31a30.579,30.579,0,0,1,1.99,6.649l0,22.278h.008a23.374,23.374,0,0,0,7.376-1.5,25.135,25.135,0,0,0,7.133-4.339,36.218,36.218,0,0,0,7.446-8.7,23.411,23.411,0,0,0,3.086-11.258,30.183,30.183,0,0,0-.316-5.744v0l0-.006ZM197.173,24.043l0,0c-.288-.117-2.919-1.171-6.667-2.277A62.164,62.164,0,0,0,176.23,19.1c-.682-.035-1.4-.053-2.121-.054A55.768,55.768,0,0,0,162.07,20.48a53.081,53.081,0,0,0-5.432,1.5l0,0-.006-.026c-.206-1.171-1.275-7.419-2.047-15.4-.5-5.139-.777-9.981-.832-14.394a90.178,90.178,0,0,1,.836-14.5,54.992,54.992,0,0,1,3.189-11.87,52.264,52.264,0,0,1,4.344-8.609,38.449,38.449,0,0,1,5.479-7.014,21.72,21.72,0,0,1,2.441,6.314,49.261,49.261,0,0,1,1.3,8.522,79.492,79.492,0,0,1-.2,12.657,69.521,69.521,0,0,0,.041,13.253A58.792,58.792,0,0,0,173.013.758a37.91,37.91,0,0,0,3.209,8.216l.007.009,0-.009c.192-.624,4.709-15.432,6.214-28.965a129.176,129.176,0,0,0,.582-18.729c-.166-4.275-.483-7.354-.576-8.2a.264.264,0,0,0-.006-.043.15.15,0,0,1,.023.033c.573.907,3.6,5.76,6.917,12.264,2.149,4.214,4.015,8.318,5.548,12.2a82.866,82.866,0,0,1,4.154,13.412,61.9,61.9,0,0,1,1.254,12.659,69.835,69.835,0,0,1-.832,10.544,57.492,57.492,0,0,1-2.337,9.887v0Zm75.236-63.569H272.4c-23.326,0-59.779-3.481-61.319-3.629l-.019,0a58.621,58.621,0,0,1-2.8-11.74,52.231,52.231,0,0,1-.349-11.45,36.393,36.393,0,0,1,3.149-12.3A41,41,0,0,1,218.9-89.6a73.665,73.665,0,0,1,9.954-8.488,91.725,91.725,0,0,1,12.19-7.432,41.307,41.307,0,0,1,5.292-1.7,52.982,52.982,0,0,1,13.058-1.7,41.227,41.227,0,0,1,13.639,2.218A36.6,36.6,0,0,1,286.7-98.14a59.056,59.056,0,0,1,8.24,10.24,60.3,60.3,0,0,1,5.915,11.88,43.778,43.778,0,0,1,2.669,12.127,25.621,25.621,0,0,1-1.495,10.979,18.516,18.516,0,0,1-7.907,9.307c-4.061,2.441-9.378,3.785-15.8,3.994C276.541-39.556,274.551-39.526,272.409-39.526Zm-161.874-.658c-13.8,0-24.637-.878-33.138-2.683a52.652,52.652,0,0,1-12.932-4.312,22.015,22.015,0,0,1-8.529-7.143,16.356,16.356,0,0,1-2.682-8.98,30.464,30.464,0,0,1,2.713-12.006,87.587,87.587,0,0,1,9.621-17.621,44.411,44.411,0,0,1,9.2-9.583,25.553,25.553,0,0,1,7.551-3.972,15.806,15.806,0,0,1,4.671-.786,6.666,6.666,0,0,1,.911.05,26.558,26.558,0,0,1,7.864-1.008,42.872,42.872,0,0,1,15.349,2.992,64.208,64.208,0,0,1,20.372,13.144c7.264,6.719,12.9,13.925,16.305,20.841,3.552,7.218,4.431,13.709,2.542,18.773a15.577,15.577,0,0,1-7.931,8.4c-4.245,2.172-9.959,3.39-16.985,3.62C119.828-40.273,114.953-40.184,110.535-40.184Z" transform="translate(0 228)"/></svg>