<svg xmlns="http://www.w3.org/2000/svg" width="350" height="350" viewBox="0 0 350 350"><path d="M175,122a176.294,176.294,0,0,1-35.269-3.555,174.123,174.123,0,0,1-32.849-10.2A175.018,175.018,0,0,1,77.156,92.113a176.26,176.26,0,0,1-25.9-21.369,176.256,176.256,0,0,1-21.369-25.9A175.015,175.015,0,0,1,13.752,15.118a174.116,174.116,0,0,1-10.2-32.849A176.3,176.3,0,0,1,0-53,176.294,176.294,0,0,1,3.555-88.269a174.118,174.118,0,0,1,10.2-32.849,175.016,175.016,0,0,1,16.135-29.726,176.257,176.257,0,0,1,21.369-25.9,176.26,176.26,0,0,1,25.9-21.369,175.018,175.018,0,0,1,29.726-16.135,174.123,174.123,0,0,1,32.849-10.2A176.3,176.3,0,0,1,175-228a176.3,176.3,0,0,1,35.268,3.555,174.123,174.123,0,0,1,32.849,10.2,175.017,175.017,0,0,1,29.726,16.135,176.259,176.259,0,0,1,25.9,21.369,176.258,176.258,0,0,1,21.369,25.9,175.017,175.017,0,0,1,16.135,29.726,174.125,174.125,0,0,1,10.2,32.849A176.294,176.294,0,0,1,350-53a176.3,176.3,0,0,1-3.555,35.269,174.123,174.123,0,0,1-10.2,32.849,175.021,175.021,0,0,1-16.135,29.726,176.259,176.259,0,0,1-21.369,25.9,176.259,176.259,0,0,1-25.9,21.369,175.018,175.018,0,0,1-29.726,16.135,174.119,174.119,0,0,1-32.849,10.2A176.29,176.29,0,0,1,175,122Zm32.11-80.623h0a13.093,13.093,0,0,1,5.874,3.79c2.518,2.906,2.724,3.144,3.184,10.047.105,1.581.054,4.47-.006,7.816V63.1c-.071,4.047-.16,9.083.007,13.483A83.254,83.254,0,0,0,217.551,88.9l0,.01h7.574l14.247-2.235a130.051,130.051,0,0,0,3.017-23.977,166.011,166.011,0,0,0-1.9-25.934L239.375,8.393l1.112-16.229,15.032-7.373L286.038-20.5l21.445-6.411L316.655-37.7l6.421-18.113V-84.844L315.507-114.9,303.4-139.862,290.277-158.15l-15.363-14.173-.006,0c-.529.328-13.076,8.079-23.616,11.514a56.774,56.774,0,0,1-17.132,2.754c-1.452,0-2.39-.068-2.726-.1h-.019l.009,0c.579-.261,14.286-6.467,22.571-12.649a46.044,46.044,0,0,0,9.059-8.86,27.082,27.082,0,0,0,2.63-4.057l0-.007-14.394-10.52a29.764,29.764,0,0,0-5.654-3.675,81.022,81.022,0,0,0-19.143-6.91c-9.08-2.178-15.287-3.546-22.073-4.534-6.547-.952-13.579-1.552-25.081-2.14-2.828-.145-5.857-.219-9-.219-5.411,0-9.168.217-9.2.219h-.006c-.109,0-.416-.007-.907-.007a114.3,114.3,0,0,0-21.725,2.182,120.247,120.247,0,0,0-15.27,4.354c-4.329,1.524-8.837,3.332-13.4,5.372-7.451,3.33-12.571,6.173-13.131,6.486l-.005,0a47.346,47.346,0,0,0-.664,9.894,48.748,48.748,0,0,0,1.253,9.742,38.839,38.839,0,0,0,4.16,10.607,44.332,44.332,0,0,0,7.873,9.627,79.942,79.942,0,0,0,9.42,7.588,99.13,99.13,0,0,0,11.191,6.75l.018.008-20.781-5.692-16.505-6.877a102.092,102.092,0,0,1-4.6-12.921c-2.006-7.191-3.415-15.768-3.429-15.854a65.8,65.8,0,0,0-6.3,4.3,105.2,105.2,0,0,0-14.257,13.073c-9.811,10.813-19.8,26.99-26.073,42.218a107.558,107.558,0,0,0-6.645,24.505,146.313,146.313,0,0,0-1.643,22.417,142.376,142.376,0,0,0,1.692,22.7,28.486,28.486,0,0,0,3.2,9.057,36.691,36.691,0,0,0,6.031,8.242,42.471,42.471,0,0,0,10.791,7.979,76.217,76.217,0,0,0,15.758,5.8,164.334,164.334,0,0,0,16.961,3.444c10.305,1.577,18.739,2.058,19.093,2.078l9.007,11.048-2.677,32.716-3.18,33.37a44.383,44.383,0,0,0,1.2,6.991,34.687,34.687,0,0,0,2.1,6.071,18.583,18.583,0,0,0,3.639,5.416,16.716,16.716,0,0,0,5.155,3.356,29,29,0,0,0,5.717,1.75,38.665,38.665,0,0,0,7.114.775h.047a12.837,12.837,0,0,0,1.3-2.892,34.675,34.675,0,0,0,1.6-9.464c.4-8.718-1.282-22.565-1.3-22.7,0-.048-.338-4.83,1.3-8.146a14.1,14.1,0,0,1,5.34-5.3l11.532,42.629h17.513l1.9-29.179c.034-.112,3.49-11.262,5.322-12.133a1.486,1.486,0,0,1,.645-.145c1.282,0,2.745,1.553,4.014,4.261a30.107,30.107,0,0,1,1.979,6.574l0,22.026h.008a23.359,23.359,0,0,0,7.334-1.485,25.02,25.02,0,0,0,7.093-4.29,35.865,35.865,0,0,0,7.4-8.6,23.045,23.045,0,0,0,3.069-11.131,29.676,29.676,0,0,0-.314-5.679v0l0-.006ZM196.053,21.195l0,0c-.286-.115-2.9-1.158-6.629-2.251a62.127,62.127,0,0,0-14.19-2.634c-.678-.035-1.388-.053-2.109-.053a55.751,55.751,0,0,0-11.97,1.418,53.011,53.011,0,0,0-5.4,1.488l0,0-.006-.026c-.205-1.158-1.267-7.335-2.035-15.228-.494-5.081-.772-9.869-.828-14.231a88.661,88.661,0,0,1,.831-14.335,54.128,54.128,0,0,1,3.171-11.736A51.561,51.561,0,0,1,161.2-44.9a38.056,38.056,0,0,1,5.448-6.934,21.408,21.408,0,0,1,2.427,6.243,48.45,48.45,0,0,1,1.294,8.426,78.151,78.151,0,0,1-.2,12.514,68.349,68.349,0,0,0,.041,13.1,57.833,57.833,0,0,0,1.823,9.725A37.363,37.363,0,0,0,175.221,6.3l.007.009,0-.009c.19-.617,4.683-15.258,6.178-28.638a127,127,0,0,0,.579-18.517c-.165-4.226-.48-7.27-.573-8.1A.261.261,0,0,0,181.41-49a.149.149,0,0,1,.023.032c.57.9,3.581,5.695,6.878,12.126,2.136,4.166,3.993,8.224,5.517,12.061a81.59,81.59,0,0,1,4.131,13.26A60.869,60.869,0,0,1,199.2.991a68.667,68.667,0,0,1-.827,10.424,56.58,56.58,0,0,1-2.324,9.776h0Zm74.809-62.851h-.009c-23.194,0-59.439-3.441-60.971-3.588l-.019,0a57.693,57.693,0,0,1-2.784-11.608,51.351,51.351,0,0,1-.347-11.32,35.819,35.819,0,0,1,3.131-12.163,40.541,40.541,0,0,1,7.788-10.832,73.14,73.14,0,0,1,9.9-8.392,91.315,91.315,0,0,1,12.12-7.348,41.234,41.234,0,0,1,5.262-1.681,52.965,52.965,0,0,1,12.984-1.681,41.2,41.2,0,0,1,13.561,2.193,36.422,36.422,0,0,1,13.6,8.47,58.449,58.449,0,0,1,8.194,10.124,59.479,59.479,0,0,1,5.881,11.746,43.075,43.075,0,0,1,2.653,11.99,25.2,25.2,0,0,1-1.486,10.855,18.334,18.334,0,0,1-7.862,9.2c-4.038,2.413-9.324,3.742-15.712,3.949C274.97-41.685,272.991-41.656,270.862-41.656Zm-160.954-.65c-13.719,0-24.5-.868-32.95-2.653A52.558,52.558,0,0,1,64.1-49.222a21.858,21.858,0,0,1-8.481-7.063,16.106,16.106,0,0,1-2.667-8.879,29.977,29.977,0,0,1,2.7-11.87,86.451,86.451,0,0,1,9.566-17.422,44.021,44.021,0,0,1,9.149-9.475,25.458,25.458,0,0,1,7.508-3.927,15.8,15.8,0,0,1,4.644-.777,6.663,6.663,0,0,1,.906.05,26.545,26.545,0,0,1,7.82-1,42.84,42.84,0,0,1,15.261,2.958,63.887,63.887,0,0,1,20.257,13c7.223,6.643,12.829,13.768,16.213,20.606,3.532,7.136,4.405,13.554,2.527,18.561a15.436,15.436,0,0,1-7.886,8.307c-4.221,2.148-9.9,3.352-16.888,3.579C119.147-42.394,114.3-42.306,109.907-42.306Z" transform="translate(0 228)"/></svg>